0
SECTION
2
HEADER
9
$INSUNITS
70
4
9
$ACADVER
1
AC1014
9
$HANDSEED
5
FFFF
0
ENDSEC
0
SECTION
2
TABLES
0
TABLE
2
VPORT
5
8
100
AcDbSymbolTable
0
ENDTAB
0
TABLE
2
LTYPE
5
5
100
AcDbSymbolTable
0
LTYPE
5
14
100
AcDbSymbolTableRecord
100
AcDbLinetypeTableRecord
2
BYBLOCK
70
0
0
LTYPE
5
15
100
AcDbSymbolTableRecord
100
AcDbLinetypeTableRecord
2
BYLAYER
70
0
0
ENDTAB
0
TABLE
2
LAYER
5
2
100
AcDbSymbolTable
70
2
0
LAYER
5
50
100
AcDbSymbolTableRecord
100
AcDbLayerTableRecord
2
0
70
0
6
CONTINUOUS
0
ENDTAB
0
TABLE
2
STYLE
5
3
100
AcDbSymbolTable
70
1
0
STYLE
5
11
100
AcDbSymbolTableRecord
100
AcDbTextStyleTableRecord
2
STANDARD
70
0
0
ENDTAB
0
TABLE
2
VIEW
5
6
100
AcDbSymbolTable
70
0
0
ENDTAB
0
TABLE
2
UCS
5
7
100
AcDbSymbolTable
70
0
0
ENDTAB
0
TABLE
2
APPID
5
9
100
AcDbSymbolTable
70
2
0
APPID
5
12
100
AcDbSymbolTableRecord
100
AcDbRegAppTableRecord
2
ACAD
70
0
0
ENDTAB
0
TABLE
2
DIMSTYLE
5
A
100
AcDbSymbolTable
70
1
0
ENDTAB
0
TABLE
2
BLOCK_RECORD
5
1
100
AcDbSymbolTable
70
1
0
BLOCK_RECORD
5
1F
100
AcDbSymbolTableRecord
100
AcDbBlockTableRecord
2
*MODEL_SPACE
0
BLOCK_RECORD
5
1B
100
AcDbSymbolTableRecord
100
AcDbBlockTableRecord
2
*PAPER_SPACE
0
ENDTAB
0
ENDSEC
0
SECTION
2
BLOCKS
0
BLOCK
5
20
100
AcDbEntity
100
AcDbBlockBegin
2
*MODEL_SPACE
0
ENDBLK
5
21
100
AcDbEntity
100
AcDbBlockEnd
0
BLOCK
5
1C
100
AcDbEntity
100
AcDbBlockBegin
2
*PAPER_SPACE
0
ENDBLK
5
1D
100
AcDbEntity
100
AcDbBlockEnd
0
ENDSEC
0
SECTION
2
ENTITIES
0
CIRCLE
5
100
100
AcDbEntity
8
0
100
AcDbCircle
10
76.037508713171377
20
-18.218943430722987
30
0
40
0.5
210
0
220
0
230
1
0
CIRCLE
5
101
100
AcDbEntity
8
0
100
AcDbCircle
10
80.000000000000682
20
19.249999999995197
30
0
40
0.5
210
0
220
0
230
1
0
CIRCLE
5
102
100
AcDbEntity
8
0
100
AcDbCircle
10
65.692682748752063
20
48.412628689153209
30
0
40
0.5
210
0
220
0
230
1
0
CIRCLE
5
103
100
AcDbEntity
8
0
100
AcDbCircle
10
74.250000000000028
20
40.000000000004135
30
0
40
0.5
210
0
220
0
230
1
0
CIRCLE
5
104
100
AcDbEntity
8
0
100
AcDbCircle
10
79.25000000000216
20
4.1588954502458364e-12
30
0
40
0.5
210
0
220
0
230
1
0
CIRCLE
5
105
100
AcDbEntity
8
0
100
AcDbCircle
10
68.305799722475967
20
-40.184316228336456
30
0
40
0.5
210
0
220
0
230
1
0
CIRCLE
5
106
100
AcDbEntity
8
0
100
AcDbCircle
10
79.561688311690006
20
8.0000000000041656
30
0
40
1.7000000000000002
210
0
220
0
230
1
0
CIRCLE
5
107
100
AcDbEntity
8
0
100
AcDbCircle
10
74.64832329183912
20
-26.097405454821221
30
0
40
1.7000000000000002
210
0
220
0
230
1
0
CIRCLE
5
108
100
AcDbEntity
8
0
100
AcDbCircle
10
76.386359855499393
20
32.290527477982245
30
0
40
1.7000000000000002
210
0
220
0
230
1
0
LWPOLYLINE
5
109
100
AcDbEntity
8
0
100
AcDbPolyline
90
26
70
1
43
0.0
10
89.358083963235629
20
13.102950133980391
42
0.20905284990474854
10
90.000000000000682
20
14.571149013153125
10
90.000000000000682
20
23.540167195118666
42
0.19891236737964879
10
89.414213562373774
20
24.954380757491769
10
84.679735576566699
20
29.68885874329883
42
-0.12948466919798535
10
82.113962735904806
20
34.089476735790136
10
80.318322340528255
20
40.569396423455615
42
0.13165249758739481
10
77.692005595625091
20
45.030044313454752
10
68.472777551451941
20
54.093392096302026
42
0.41421356237309503
10
65.644453228052427
20
54.069277335952208
10
60.036034101953142
20
48.364399168453659
42
0.41421356237311524
10
60.060148862303045
20
45.536074845054067
10
65.907746439624376
20
39.787349432964028
42
-0.20112913504218494
10
68.897222532000612
20
32.656251723590266
10
68.897222532000612
20
5.8422932259480342
42
0.1989123673796919
10
69.483008969627704
20
4.4280796635747501
10
72.534216385939871
20
1.3768722472634094
42
-0.24469844322896137
10
73.089618329591531
20
-0.3846376704429319
10
64.398272332102209
20
-49.675710214129005
42
0.41421356237309248
10
66.020591482793705
20
-51.992622075486622
10
73.899053506891931
20
-53.381807496818858
42
0.41421356237309076
10
76.215965368249542
20
-51.759488346127355
10
85.111683776093088
20
-1.3093622671662253
42
0.033910885150601672
10
85.256025063058587
20
0.037804490652074418
10
85.598474713462764
20
8.8273455177058295
42
-0.19891236737965801
10
86.238874513645499
20
10.217681393109164
0
ENDSEC
0
SECTION
2
OBJECTS
0
DICTIONARY
5
C
100
AcDbDictionary
3
ACAD_GROUP
350
D
3
ACAD_MLINESTYLE
350
17
0
DICTIONARY
5
D
100
AcDbDictionary
0
DICTIONARY
5
1A
330
C
100
AcDbDictionary
0
DICTIONARY
5
17
100
AcDbDictionary
0
ENDSEC
0
EOF
